<svg width="12" height="12" fill="none" xmlns="http://www.w3.org/2000/svg"><path d="M8.582 6.744a2.17 2.17 0 0 0-2.783-2.792l.51.525a1.54 1.54 0 0 1 1.777 1.508c0 .078-.007.156-.02.234l.516.525Z" fill="#C7D2D6"/><path d="M11.46 5.836c-1.066-1.97-2.935-3.162-5.003-3.162a5.318 5.318 0 0 0-1.657.269l.51.512c.374-.097.76-.147 1.147-.148 1.78 0 3.4.993 4.364 2.665a5.613 5.613 0 0 1-1.382 1.613l.449.449a6.302 6.302 0 0 0 1.58-1.897l.083-.152-.092-.149ZM2.157 2.12l1.41 1.411A6.172 6.172 0 0 0 1.45 5.836l-.082.149.082.152c1.066 1.97 2.935 3.162 5.003 3.162.807 0 1.604-.183 2.33-.535l1.581 1.581.554-.474L2.697 1.65l-.54.47ZM5.24 5.205l2.102 2.103A1.52 1.52 0 0 1 5.46 7.08a1.54 1.54 0 0 1-.448-1.095c.003-.276.082-.546.228-.781Zm-.459-.459a2.166 2.166 0 0 0 3.02 3.02l.506.506c-.586.25-1.216.38-1.853.38-1.78 0-3.4-.993-4.364-2.666a5.467 5.467 0 0 1 1.935-1.992l.756.752Z" fill="#C7D2D6"/></svg>