<svg width="18" height="18" fill="none" xmlns="http://www.w3.org/2000/svg"><g clip-path="url(#a)"><path d="M17.538 9.155C17.538 4.41 13.715.564 9 .564 4.283.565.46 4.41.46 9.156c0 4.287 3.123 7.84 7.204 8.485v-6.003H5.497V9.156h2.169V7.262c0-2.153 1.275-3.342 3.225-3.342.935 0 1.911.168 1.911.168V6.2h-1.076c-1.06 0-1.391.663-1.391 1.342v1.612h2.367l-.378 2.482h-1.99v6.003c4.08-.645 7.204-4.198 7.204-8.485Z" fill="#059BE5"/></g><defs><clipPath id="a"><rect x=".462" y=".565" width="17.075" height="17.075" rx="8.537" fill="#fff"/></clipPath></defs></svg>