<svg width="18" height="18" fill="none" xmlns="http://www.w3.org/2000/svg"><g clip-path="url(#a)"><path fill-rule="evenodd" clip-rule="evenodd" d="M9 .565A8.535 8.535 0 0 0 .462 9.103a8.532 8.532 0 0 0 5.838 8.1c.427.074.587-.182.587-.406 0-.203-.01-.875-.01-1.59-2.146.395-2.7-.523-2.871-1.003-.096-.246-.513-1.003-.876-1.206-.298-.16-.725-.555-.01-.566.672-.01 1.152.62 1.312.875.769 1.292 1.996.929 2.487.705.075-.555.299-.929.544-1.142-1.9-.214-3.884-.95-3.884-4.216 0-.928.33-1.696.875-2.294-.086-.214-.384-1.089.085-2.263 0 0 .715-.224 2.348.876a7.922 7.922 0 0 1 2.134-.289c.726 0 1.452.096 2.135.289 1.633-1.11 2.348-.876 2.348-.876.47 1.174.17 2.05.085 2.263.544.598.875 1.355.875 2.294 0 3.277-1.996 4.002-3.895 4.216.31.267.576.779.576 1.58 0 1.141-.01 2.059-.01 2.347 0 .224.16.49.586.405a8.551 8.551 0 0 0 5.817-8.1A8.535 8.535 0 0 0 9 .566Z" fill="#000"/></g><defs><clipPath id="a"><rect x=".462" y=".565" width="17.075" height="17.075" rx="8.537" fill="#fff"/></clipPath></defs></svg>