<svg width="18" height="18" fill="none" xmlns="http://www.w3.org/2000/svg"><g clip-path="url(#a)"><path d="M17.371 7.43h-.688v-.035H9v3.415h4.825a5.12 5.12 0 0 1-9.948-1.708A5.123 5.123 0 0 1 9 3.98c1.306 0 2.494.493 3.398 1.297l2.415-2.415A8.498 8.498 0 0 0 9 .565 8.538 8.538 0 1 0 17.37 7.43Z" fill="#FFC107"/><path d="m1.446 5.129 2.805 2.057A5.12 5.12 0 0 1 9 3.98c1.306 0 2.494.493 3.399 1.297l2.414-2.415A8.498 8.498 0 0 0 9 .565 8.532 8.532 0 0 0 1.446 5.13Z" fill="#FF3D00"/><path d="M9 17.64a8.497 8.497 0 0 0 5.724-2.216l-2.643-2.236A5.084 5.084 0 0 1 9 14.225a5.12 5.12 0 0 1-4.816-3.392L1.4 12.978A8.53 8.53 0 0 0 9 17.64Z" fill="#4CAF50"/><path d="M17.371 7.43h-.688v-.035H9v3.415h4.825a5.14 5.14 0 0 1-1.745 2.378h.001l2.643 2.235c-.187.17 2.813-2.052 2.813-6.32 0-.573-.059-1.132-.166-1.673Z" fill="#1976D2"/></g><defs><clipPath id="a"><rect x=".462" y=".565" width="17.075" height="17.075" rx="8.537" fill="#fff"/></clipPath></defs></svg>